<svg xmlns="http://www.w3.org/2000/svg" xmlns:xlink="http://www.w3.org/1999/xlink" version="1.1" x="0px" y="0px" viewBox="0 0 100 100" enable-background="new 0 0 100 100" xml:space="preserve"><path d="M76.5,37.1c-1.8,0-3.3,1.4-3.3,3.2v8.3c0,12.6-10.3,23.1-23.1,23.1c-12.8,0-23.3-10.5-23.3-23.1v-8.3c0-1.8-1.5-3.2-3.3-3.2  c-1.8,0-3.2,1.4-3.2,3.2v8.3C20.3,63.8,32,76.3,46.8,78c0,0,0,0.1,0,0.1v10.4H33.9c-1.8,0-3.2,1.5-3.2,3.3c0,1.8,1.4,3.2,3.2,3.2H66  c1.8,0,3.2-1.4,3.2-3.2c0-1.8-1.4-3.3-3.2-3.3H53.2V78.2c0-0.1,0-0.1,0-0.1C68,76.3,79.7,63.8,79.7,48.6v-8.3  C79.7,38.6,78.2,37.1,76.5,37.1L76.5,37.1z M50,65.9c9.8,0,17.6-8,17.6-17.7l0.1-25.5C67.7,13,59.9,5,50.1,5  c-9.8,0-17.8,8-17.8,17.8v25.5C32.2,58,40.2,65.9,50,65.9z"></path></svg>